<svg version="1.1" viewBox="0.0 0.0 960.0 540.0" fill="none" stroke="none" stroke-linecap="square" stroke-miterlimit="10" xmlns:xlink="http://www.w3.org/1999/xlink" xmlns="http://www.w3.org/2000/svg"><clipPath id="p.0"><path d="m0 0l960.0 0l0 540.0l-960.0 0l0 -540.0z" clip-rule="nonzero"/></clipPath><g clip-path="url(#p.0)"><path fill="#ffffff" d="m0 0l960.0 0l0 540.0l-960.0 0z" fill-rule="evenodd"/><path fill="#000000" fill-opacity="0.0" d="m32.725285 142.98425l894.5512 0l0 215.49606l-894.5512 0z" fill-rule="evenodd"/><path fill="#434343" d="m127.683876 311.1522q-13.5 0 -25.25 -5.171875q-11.734375 -5.171875 -20.65625 -14.421875q-8.921875 -9.25 -13.921875 -21.328125q-5.000004 -12.078125 -5.000004 -25.90625q0 -13.671875 4.921879 -25.75q4.921875 -12.09375 13.828125 -21.25q8.921875 -9.171875 20.671875 -14.421875q11.75 -5.25 25.40625 -5.25q11.999992 0 21.828117 3.5q9.84375 3.5 19.015625 11.171875q1.5 1.15625 1.75 2.75q0.25 1.578125 -0.421875 3.0q-0.671875 1.40625 -2.0 2.078125q-0.328125 1.328125 -1.671875 2.0q-1.328125 0.671875 -3.078125 0.5q-1.75 -0.171875 -3.421875 -1.5q-6.5 -5.671875 -14.171875 -8.421875q-7.65625 -2.75 -17.828117 -2.75q-10.828125 0 -20.25 4.34375q-9.40625 4.328125 -16.578125 11.828125q-7.15625 7.5 -11.25 17.34375q-4.078125 9.828125 -4.078125 20.828125q0 11.328125 4.078125 21.15625q4.09375 9.828125 11.25 17.328125q7.171875 7.5 16.578125 11.75q9.421875 4.25 20.25 4.25q9.171867 0 17.328117 -3.0q8.171875 -3.0 15.515625 -8.65625q2.0 -1.671875 4.25 -1.328125q2.25 0.328125 3.90625 2.0q1.671875 1.65625 1.671875 4.328125q0 1.328125 -0.421875 2.421875q-0.40625 1.078125 -1.40625 2.234375q-8.5 7.84375 -19.0 11.09375q-10.5 3.25 -21.843742 3.25z" fill-rule="nonzero"/><path fill="#38761d" d="m237.01962 310.30844q-13.34375 0 -23.84375 -6.0q-10.484375 -6.0 -16.484375 -16.5q-6.0 -10.5 -6.0 -23.828125q0 -13.5 6.0 -24.0q6.0 -10.5 16.484375 -16.5q10.5 -6.0 23.84375 -6.0q13.328125 0 23.734375 6.0q10.421875 6.0 16.421875 16.5q6.0 10.5 6.171875 24.0q0 13.328125 -6.09375 23.828125q-6.078125 10.5 -16.5 16.5q-10.40625 6.0 -23.734375 6.0zm0 -11.65625q9.65625 0 17.328125 -4.5q7.671875 -4.5 12.0 -12.328125q4.328125 -7.84375 4.328125 -17.84375q0 -10.0 -4.328125 -17.90625q-4.328125 -7.921875 -12.0 -12.421875q-7.671875 -4.5 -17.328125 -4.5q-9.671875 0 -17.34375 4.5q-7.65625 4.5 -12.078125 12.421875q-4.40625 7.90625 -4.40625 17.90625q0 10.0 4.40625 17.84375q4.421875 7.828125 12.078125 12.328125q7.671875 4.5 17.34375 4.5z" fill-rule="nonzero"/><path fill="#434343" d="m431.50214 309.48032q-2.828125 0 -4.671875 -1.75q-1.828125 -1.75 -1.828125 -4.578125l0 -48.0q0 -11.828125 -6.171875 -18.75q-6.15625 -6.921875 -15.828125 -6.921875q-10.328125 0 -16.921875 6.921875q-6.578125 6.921875 -6.40625 18.421875l-11.5 0q0.171875 -11.171875 4.828125 -19.671875q4.671875 -8.5 12.828125 -13.15625q8.171875 -4.671875 18.515625 -4.671875q9.828125 0 17.40625 4.671875q7.578125 4.65625 11.828125 13.15625q4.25 8.5 4.25 20.0l0 48.0q0 2.828125 -1.75 4.578125q-1.75 1.75 -4.578125 1.75zm-116.65625 0q-3.0 0 -4.75 -1.75q-1.75 -1.75 -1.75 -4.578125l0 -78.328125q0 -2.84375 1.75 -4.671875q1.75 -1.828125 4.75 -1.828125q2.828125 0 4.578125 1.828125q1.75 1.828125 1.75 4.671875l0 78.328125q0 2.828125 -1.75 4.578125q-1.75 1.75 -4.578125 1.75zm58.5 0q-2.84375 0 -4.671875 -1.75q-1.828125 -1.75 -1.828125 -4.578125l0 -48.0q0 -11.828125 -6.171875 -18.75q-6.171875 -6.921875 -15.828125 -6.921875q-10.328125 0 -17.0 6.75q-6.671875 6.75 -6.671875 17.59375l-9.15625 0q0.328125 -10.671875 4.734375 -18.921875q4.421875 -8.25 12.078125 -12.90625q7.671875 -4.671875 17.34375 -4.671875q9.828125 0 17.40625 4.671875q7.59375 4.65625 11.84375 13.15625q4.25 8.5 4.25 20.0l0 48.0q0 2.828125 -1.75 4.578125q-1.75 1.75 -4.578125 1.75z" fill-rule="nonzero"/><path fill="#38761d" d="m507.66937 310.30844q-13.34375 0 -23.84375 -6.0q-10.484375 -6.0 -16.484375 -16.5q-6.0 -10.5 -6.0 -23.828125q0 -13.5 6.0 -24.0q6.0 -10.5 16.484375 -16.5q10.5 -6.0 23.84375 -6.0q13.328125 0 23.734375 6.0q10.421875 6.0 16.421875 16.5q6.0 10.5 6.171875 24.0q0 13.328125 -6.09375 23.828125q-6.078125 10.5 -16.5 16.5q-10.40625 6.0 -23.734375 6.0zm0 -11.65625q9.65625 0 17.328125 -4.5q7.671875 -4.5 12.0 -12.328125q4.328125 -7.84375 4.328125 -17.84375q0 -10.0 -4.328125 -17.90625q-4.328125 -7.921875 -12.0 -12.421875q-7.671875 -4.5 -17.328125 -4.5q-9.671875 0 -17.34375 4.5q-7.65625 4.5 -12.078125 12.421875q-4.40625 7.90625 -4.40625 17.90625q0 10.0 4.40625 17.84375q4.421875 7.828125 12.078125 12.328125q7.671875 4.5 17.34375 4.5z" fill-rule="nonzero"/><path fill="#434343" d="m657.1519 309.48032q-2.828125 0 -4.671875 -1.828125q-1.828125 -1.84375 -1.828125 -4.5l0 -43.328125q0 -10.34375 -3.921875 -17.0q-3.90625 -6.671875 -10.65625 -10.0q-6.75 -3.34375 -15.25 -3.34375q-8.171875 0 -14.75 3.171875q-6.578125 3.171875 -10.421875 8.671875q-3.828125 5.5 -3.828125 12.5l-9.15625 0q0.328125 -10.5 5.65625 -18.75q5.34375 -8.25 14.171875 -13.0q8.828125 -4.75 19.65625 -4.75q11.84375 0 21.171875 4.921875q9.328125 4.90625 14.75 14.40625q5.421875 9.5 5.421875 23.171875l0 43.328125q0 2.65625 -1.84375 4.5q-1.828125 1.828125 -4.5 1.828125zm-71.65625 0q-3.0 0 -4.75 -1.75q-1.75 -1.75 -1.75 -4.578125l0 -78.328125q0 -3.0 1.75 -4.75q1.75 -1.75 4.75 -1.75q2.828125 0 4.578125 1.75q1.75 1.75 1.75 4.75l0 78.328125q0 2.828125 -1.75 4.578125q-1.75 1.75 -4.578125 1.75zm146.48254 0.828125q-12.828125 0 -23.0 -6.078125q-10.15625 -6.078125 -16.078125 -16.578125q-5.90625 -10.5 -5.90625 -23.671875q0 -13.328125 6.078125 -23.828125q6.078125 -10.5 16.578125 -16.578125q10.5 -6.09375 23.671875 -6.09375q13.15625 0 23.578125 6.09375q10.421875 6.078125 16.5 16.578125q6.078125 10.5 6.25 23.828125l-5.171875 4.0q0 12.0 -5.578125 21.59375q-5.578125 9.578125 -15.171875 15.15625q-9.578125 5.578125 -21.75 5.578125zm1.34375 -11.65625q9.65625 0 17.234375 -4.5q7.59375 -4.5 12.0 -12.421875q4.421875 -7.921875 4.421875 -17.75q0 -10.0 -4.421875 -17.828125q-4.40625 -7.828125 -12.0 -12.40625q-7.578125 -4.59375 -17.234375 -4.59375q-9.5 0 -17.171875 4.59375q-7.65625 4.578125 -12.15625 12.40625q-4.5 7.828125 -4.5 17.828125q0 9.828125 4.5 17.75q4.5 7.921875 12.15625 12.421875q7.671875 4.5 17.171875 4.5zm39.828125 10.828125q-2.828125 0 -4.671875 -1.75q-1.828125 -1.75 -1.828125 -4.578125l0 -28.5l3.171875 -13.171875l9.828125 2.5l0 39.171875q0 2.828125 -1.84375 4.578125q-1.828125 1.75 -4.65625 1.75zm72.99817 0.828125q-13.171875 0 -23.671875 -6.078125q-10.5 -6.078125 -16.578125 -16.578125q-6.078125 -10.5 -6.078125 -23.828125q0 -13.171875 5.90625 -23.671875q5.921875 -10.5 16.078125 -16.578125q10.171875 -6.09375 23.0 -6.09375q11.171875 0 20.171875 4.75q9.0 4.75 14.5 12.59375l0 -49.0q0 -3.0 1.828125 -4.75q1.84375 -1.75 4.671875 -1.75q2.828125 0 4.65625 1.75q1.84375 1.75 1.84375 4.75l0 78.65625q-0.328125 13.0 -6.421875 23.421875q-6.078125 10.40625 -16.5 16.40625q-10.40625 6.0 -23.40625 6.0zm0 -11.65625q9.65625 0 17.234375 -4.578125q7.59375 -4.59375 12.0 -12.421875q4.421875 -7.84375 4.421875 -17.828125q0 -9.84375 -4.421875 -17.75q-4.40625 -7.921875 -12.0 -12.421875q-7.578125 -4.5 -17.234375 -4.5q-9.5 0 -17.171875 4.5q-7.65625 4.5 -12.15625 12.421875q-4.5 7.90625 -4.5 17.75q0 9.984375 4.5 17.828125q4.5 7.828125 12.15625 12.421875q7.671875 4.578125 17.171875 4.578125z" fill-rule="nonzero"/><path fill="#000000" d="m226.73756 263.30972l0 0c0 -4.722687 3.6381226 -8.551193 8.125977 -8.551193l0 0c2.1551514 0 4.2220306 0.9009247 5.745941 2.504593c1.5239258 1.6036377 2.3800507 3.7786865 2.3800507 6.0466003l0 0c0 4.722687 -3.6381226 8.551178 -8.125992 8.551178l0 0c-4.487854 0 -8.125977 -3.8284912 -8.125977 -8.551178z" fill-rule="evenodd"/><path stroke="#595959" stroke-width="1.0" stroke-linejoin="round" stroke-linecap="butt" d="m226.73756 263.30972l0 0c0 -4.722687 3.6381226 -8.551193 8.125977 -8.551193l0 0c2.1551514 0 4.2220306 0.9009247 5.745941 2.504593c1.5239258 1.6036377 2.3800507 3.7786865 2.3800507 6.0466003l0 0c0 4.722687 -3.6381226 8.551178 -8.125992 8.551178l0 0c-4.487854 0 -8.125977 -3.8284912 -8.125977 -8.551178z" fill-rule="evenodd"/><path fill="#000000" d="m496.85828 263.30972l0 0c0 -4.722687 3.6381226 -8.551193 8.125977 -8.551193l0 0c2.1551514 0 4.2220154 0.9009247 5.745941 2.504593c1.5238953 1.6036377 2.3800354 3.7786865 2.3800354 6.0466003l0 0c0 4.722687 -3.6381226 8.551178 -8.125977 8.551178l0 0c-4.487854 0 -8.125977 -3.8284912 -8.125977 -8.551178z" fill-rule="evenodd"/><path stroke="#595959" stroke-width="1.0" stroke-linejoin="round" stroke-linecap="butt" d="m496.85828 263.30972l0 0c0 -4.722687 3.6381226 -8.551193 8.125977 -8.551193l0 0c2.1551514 0 4.2220154 0.9009247 5.745941 2.504593c1.5238953 1.6036377 2.3800354 3.7786865 2.3800354 6.0466003l0 0c0 4.722687 -3.6381226 8.551178 -8.125977 8.551178l0 0c-4.487854 0 -8.125977 -3.8284912 -8.125977 -8.551178z" fill-rule="evenodd"/></g></svg>